<?xml version="1.0" standalone="no"?>
<!DOCTYPE svg PUBLIC "-//W3C//DTD SVG 20010904//EN"
 "http://www.w3.org/TR/2001/REC-SVG-20010904/DTD/svg10.dtd">
<svg version="1.0" xmlns="http://www.w3.org/2000/svg"
 width="1024.000000pt" height="1024.000000pt" viewBox="0 0 1024.000000 1024.000000"
 preserveAspectRatio="xMidYMid meet">

<g transform="translate(0.000000,1024.000000) scale(0.100000,-0.100000)"
fill="#000000" stroke="none">
<path d="M5082 9163 c-21 -8 -34 -41 -20 -49 7 -4 10 -4 6 1 -9 9 10 37 21 31
3 -2 12 2 19 10 10 11 10 14 0 13 -7 0 -19 -3 -26 -6z"/>
<path d="M5805 9125 c-27 -26 -31 -54 -14 -88 16 -30 28 -37 65 -37 38 0 74
36 74 74 0 34 -41 76 -75 76 -14 0 -37 -11 -50 -25z"/>
<path d="M4385 9086 c-5 -3 -22 -7 -37 -10 -39 -9 -98 -64 -119 -111 -31 -68
-18 -176 26 -225 16 -18 15 -19 -27 -30 -534 -137 -981 -354 -1422 -688 -281
-214 -564 -503 -797 -817 -232 -311 -403 -640 -502 -965 -57 -184 -137 -517
-137 -566 0 -2 15 -4 33 -4 17 0 50 -5 72 -10 22 -5 40 -8 42 -7 1 2 12 48 23
102 12 55 25 106 29 113 5 9 19 4 52 -19 24 -18 46 -36 47 -41 2 -4 8 -5 14
-2 6 4 8 -1 5 -12 -3 -11 -13 -55 -22 -99 -10 -44 -21 -90 -25 -101 -6 -16 -2
-31 17 -59 35 -52 60 -112 68 -167 4 -32 11 -48 20 -48 16 0 21 17 30 110 10
97 32 220 66 363 l31 129 -23 16 c-55 38 -113 100 -137 147 -23 42 -27 63 -27
134 0 57 4 86 12 88 7 3 9 12 6 21 -6 15 -5 15 10 3 15 -12 17 -11 17 3 0 10
4 15 10 11 5 -3 14 9 20 27 9 30 9 30 6 4 -4 -35 15 -111 44 -170 25 -54 128
-152 194 -185 50 -26 62 -23 69 19 3 14 12 43 21 64 9 21 16 40 16 42 0 2 -17
12 -38 23 -49 25 -78 56 -61 67 8 5 10 3 4 -6 -6 -10 -4 -12 8 -7 10 4 16 2
14 -5 -1 -9 17 -11 61 -10 163 8 319 115 365 252 25 76 29 123 17 230 -12 113
-35 183 -74 234 l-25 33 91 104 c51 57 184 197 297 311 113 114 211 219 218
233 24 45 -16 94 -77 95 -33 1 -49 -14 -250 -219 -118 -121 -246 -256 -285
-300 -70 -79 -100 -105 -88 -74 5 12 1 14 -17 8 -14 -4 -20 -3 -16 3 3 5 -8
24 -24 42 -24 25 -28 36 -19 46 6 8 16 11 22 7 6 -3 7 -1 3 6 -5 7 21 46 65
99 95 113 473 491 527 527 38 25 47 27 99 20 135 -16 213 -86 213 -190 0 -53
-19 -95 -56 -124 -21 -16 -41 -21 -90 -21 -71 0 -80 -10 -68 -77 10 -58 21
-71 66 -83 94 -26 225 48 282 158 44 86 41 223 -8 306 -44 73 -148 156 -198
156 -43 0 -15 21 212 160 316 193 638 326 994 410 71 17 145 39 165 50 110 57
191 220 161 328 -12 47 -59 106 -100 127 -29 15 -98 27 -115 21z m69 -131 c52
-49 21 -118 -55 -118 -77 0 -94 93 -24 131 31 17 50 14 79 -13z m-2236 -1796
c7 -12 11 -23 9 -26 -3 -3 -11 5 -17 17 -10 18 -14 19 -28 8 -15 -12 -16 -11
-3 5 17 22 23 22 39 -4z m-2 -264 c56 -33 95 -98 97 -162 2 -41 -1 -48 -23
-59 -130 -63 -168 -67 -254 -29 -62 28 -91 32 -81 13 4 -7 -1 -4 -9 6 -46 57
12 197 99 241 47 24 121 19 171 -10z m-248 -280 c-3 -3 -9 2 -12 12 -6 14 -5
15 5 6 7 -7 10 -15 7 -18z m312 2 c0 -2 -10 -12 -22 -23 l-23 -19 19 23 c18
21 26 27 26 19z m-76 -68 c-6 -11 -44 -12 -44 -1 0 4 11 8 25 8 14 1 22 -2 19
-7z m-117 -5 c-3 -3 -12 -4 -19 -1 -8 3 -5 6 6 6 11 1 17 -2 13 -5z m50 -10
c-3 -3 -12 -4 -19 -1 -8 3 -5 6 6 6 11 1 17 -2 13 -5z"/>
<path d="M4380 8924 c0 -6 7 -17 15 -24 13 -11 14 -10 9 5 -5 13 -4 16 4 11 7
-4 12 -1 12 6 0 8 -9 14 -20 14 -11 0 -20 -6 -20 -12z"/>
<path d="M4360 8915 c0 -6 5 -16 12 -23 17 -17 1 -27 -19 -11 -17 12 -17 12
-2 -5 12 -12 22 -15 32 -10 14 8 14 12 -3 34 -11 14 -20 20 -20 15z"/>
<path d="M4410 8860 l-25 -8 28 -1 c15 -1 27 4 27 9 0 6 -1 10 -2 9 -2 -1 -14
-5 -28 -9z"/>
<path d="M2085 6766 c-25 -18 -25 -74 1 -93 48 -35 114 -17 114 31 0 58 -69
96 -115 62z"/>
<path d="M7932 8973 c-77 -38 -84 -156 -12 -210 69 -52 190 16 190 109 0 54
-66 118 -122 118 -13 0 -38 -8 -56 -17z"/>
<path d="M4000 8906 c0 -2 7 -7 16 -10 8 -3 12 -2 9 4 -6 10 -25 14 -25 6z"/>
<path d="M5040 8763 c-125 -8 -262 -25 -288 -34 -34 -12 -57 -56 -47 -88 8
-27 37 -42 85 -44 22 -1 39 -4 37 -7 -1 -3 -16 -31 -32 -62 -26 -51 -33 -58
-60 -58 -57 -1 -325 -39 -345 -50 -46 -25 -54 -90 -14 -116 22 -15 35 -16 102
-6 123 18 283 35 287 30 3 -3 9 -27 14 -54 27 -140 100 -251 212 -317 61 -37
67 -38 134 -34 92 6 173 44 241 114 62 63 89 117 105 207 11 66 11 66 45 66
81 0 376 -70 499 -118 l50 -20 7 -77 c16 -176 139 -322 372 -444 95 -50 189
-40 266 30 54 49 75 64 61 47 -11 -15 -11 -18 2 -18 8 0 18 -6 20 -12 4 -10 8
-9 16 2 5 8 12 12 16 9 3 -3 -4 -14 -15 -24 -17 -15 -22 -16 -37 -4 -17 12
-17 12 -2 -5 15 -16 9 -24 -89 -123 l-105 -106 29 -21 c146 -106 331 -278 394
-365 l20 -29 -130 -128 -129 -129 -158 4 c-87 1 -163 7 -170 13 -7 5 -18 6
-24 2 -9 -5 -10 -2 -6 9 6 15 -11 30 -133 119 -62 45 -232 139 -325 180 -180
80 -330 126 -512 160 -159 29 -509 31 -651 5 -381 -72 -666 -199 -959 -429
-172 -135 -408 -411 -503 -587 -12 -24 -11 -24 26 5 38 29 94 65 178 112 81
46 220 93 304 103 46 6 86 8 89 5 4 -3 15 2 26 11 36 32 7 -9 -49 -67 -143
-150 -273 -356 -352 -560 -136 -349 -149 -844 -31 -1201 123 -374 396 -708
737 -901 144 -82 387 -178 448 -178 14 0 245 223 743 717 398 395 730 722 738
727 12 6 14 4 9 -11 -5 -16 -1 -18 34 -17 52 1 68 -9 50 -31 -11 -13 -15 -13
-23 -3 -6 9 -7 7 -3 -6 5 -15 -72 -97 -371 -399 -208 -208 -383 -384 -389
-391 -6 -6 -127 -125 -269 -265 l-257 -254 129 6 c226 11 461 83 628 193 13 9
28 13 33 10 5 -3 136 -136 291 -295 l283 -290 -54 -34 c-247 -158 -565 -271
-923 -329 -125 -20 -532 -17 -675 5 -183 29 -391 88 -558 158 -51 22 -98 37
-105 33 -7 -4 -9 -4 -5 1 5 4 -40 35 -99 67 -58 33 -130 75 -160 94 -30 19
-59 31 -65 28 -6 -4 -8 -3 -5 3 4 6 -24 33 -61 61 -37 27 -78 60 -92 72 -14
12 -40 34 -58 48 -39 30 -195 188 -218 220 -8 12 -20 20 -25 16 -5 -3 -8 -1
-7 4 4 14 -43 72 -54 66 -4 -3 -7 0 -6 8 2 7 -2 12 -9 11 -7 -2 -10 3 -8 10 2
6 -7 26 -21 42 -15 17 -23 24 -19 16 6 -9 4 -12 -4 -7 -6 4 -9 11 -6 16 3 5
-14 39 -39 77 -78 122 -87 140 -76 169 14 37 11 163 -5 208 -63 178 -246 266
-426 206 -34 -12 -63 -20 -64 -18 -7 7 -46 181 -60 263 -18 114 -35 280 -35
355 0 56 -1 59 -23 54 -68 -16 -106 -16 -122 0 -10 10 -12 16 -5 16 7 0 10 7
6 15 -7 21 14 66 28 58 6 -3 8 -3 4 2 -4 4 2 21 14 37 23 33 13 50 -24 43 -10
-2 -18 1 -18 7 0 5 6 8 14 5 11 -4 16 3 18 26 3 28 7 32 36 35 29 3 32 6 31
35 l-1 32 -8 -30 c-6 -24 -7 -20 -7 23 0 44 3 52 19 52 16 0 18 9 18 75 0 77
9 92 39 63 10 -11 12 -5 9 27 -3 38 -5 40 -40 43 -30 3 -38 7 -38 23 0 10 -6
19 -13 19 -7 0 -22 8 -33 18 -13 12 -38 18 -81 19 -69 2 -67 4 -78 -77 -10
-74 -28 -155 -36 -160 -4 -3 -8 -45 -10 -93 l-4 -89 28 -5 c33 -7 35 -19 4
-27 -27 -6 -54 -53 -32 -53 7 0 12 5 11 11 -2 6 -1 8 1 4 3 -5 14 -8 24 -8 11
0 17 5 14 10 -3 6 10 1 29 -11 38 -22 48 -43 19 -37 -10 2 -17 9 -16 14 3 16
-89 7 -104 -11 -7 -8 -8 -10 -1 -5 7 6 31 10 55 10 47 0 63 -17 63 -69 0 -20
-8 -36 -27 -50 -28 -23 -54 -21 -84 6 -12 10 -18 11 -21 3 -2 -7 -25 -14 -52
-17 l-49 -6 7 44 c3 24 2 57 -2 73 -8 29 -9 18 -15 -159 -1 -16 0 -72 1 -122
2 -81 4 -93 20 -94 14 0 14 -2 -3 -9 -11 -5 -15 -9 -8 -9 6 -1 9 -9 6 -20 -12
-45 66 -423 129 -624 16 -54 27 -101 24 -104 -3 -4 -6 2 -6 12 0 15 -3 16 -12
7 -17 -17 -29 -15 -22 3 4 8 1 15 -5 15 -6 0 -11 -7 -11 -16 0 -12 -7 -14 -33
-9 -17 4 -36 13 -40 19 -5 6 -6 -2 -3 -19 l6 -30 -17 30 c-26 47 -70 175 -103
297 -43 162 -68 326 -80 511 -10 155 -11 163 -36 185 l-25 22 -424 0 -424 0
-20 -26 c-26 -33 -26 -45 0 -78 l20 -26 225 0 224 0 0 -42 c0 -24 3 -67 6 -95
l7 -53 -252 0 c-238 0 -252 -1 -271 -20 -26 -26 -26 -72 1 -96 19 -17 41 -18
274 -19 140 -1 256 -3 258 -6 1 -2 10 -49 19 -105 23 -134 76 -358 91 -378 11
-14 20 -8 79 49 49 48 71 63 84 58 12 -4 15 -3 10 5 -12 20 84 6 105 -15 30
-30 35 -77 10 -102 -20 -20 -30 -21 -275 -21 -252 0 -255 0 -282 -23 -31 -27
-35 -68 -9 -97 16 -18 32 -20 165 -20 l147 0 32 -90 c17 -50 44 -116 58 -147
l27 -56 -121 -117 c-66 -64 -133 -138 -149 -166 -27 -45 -29 -57 -29 -149 0
-85 3 -107 23 -145 28 -54 74 -104 122 -132 19 -12 37 -23 39 -25 3 -2 -82
-90 -187 -196 -106 -106 -192 -201 -192 -210 0 -54 54 -96 101 -78 14 5 104
85 200 178 95 92 192 181 214 198 22 16 63 50 90 76 63 60 100 89 114 89 6 0
10 6 8 13 -1 6 6 11 15 11 10 -1 15 2 12 8 -3 5 45 57 106 115 81 77 119 107
138 108 15 1 63 2 107 3 l80 2 84 70 c83 69 85 70 143 70 l58 0 36 -55 c19
-31 40 -53 45 -49 28 17 -16 -37 -80 -99 -43 -43 -75 -66 -82 -61 -8 5 -9 3
-4 -6 5 -8 1 -18 -11 -27 -22 -16 -267 -255 -577 -562 -255 -253 -281 -291
-281 -416 0 -124 62 -218 182 -273 47 -21 65 -24 132 -20 134 8 151 20 498
358 l306 298 21 -47 c37 -80 91 -110 218 -123 26 -3 1 -29 -290 -318 -175
-173 -339 -336 -365 -362 -36 -36 -48 -55 -48 -78 0 -39 31 -70 71 -70 34 0
33 -1 346 298 111 107 210 195 220 196 10 2 18 11 18 22 0 12 6 18 17 18 10
-1 15 2 13 7 -3 4 31 43 76 86 45 43 154 149 243 235 109 107 168 158 183 158
22 0 222 -36 256 -46 12 -4 15 -12 12 -27 -3 -12 -1 -29 5 -37 9 -13 11 -13
20 0 6 9 10 10 10 3 0 -6 -5 -15 -10 -18 -6 -4 -7 -11 -4 -17 5 -7 12 -5 20 7
8 10 17 15 21 11 4 -4 1 -11 -6 -15 -9 -6 -10 -11 -2 -15 14 -9 33 2 26 15 -4
5 -1 9 4 9 6 0 11 -6 11 -12 0 -7 -120 -131 -266 -277 l-266 -264 92 -54 c295
-173 716 -319 1106 -382 354 -58 818 -52 1174 14 386 72 855 253 1189 460 129
80 348 247 478 363 l111 101 119 -115 c65 -63 128 -117 140 -120 28 -8 60 3
67 22 4 10 1 13 -7 9 -6 -3 -5 0 4 6 29 22 4 60 -116 173 -63 60 -115 114
-115 121 0 6 10 20 21 31 90 79 381 429 478 573 147 218 336 628 366 794 l7
37 -78 0 c-62 0 -90 5 -129 24 -142 66 -196 235 -120 375 50 91 122 130 244
131 l73 0 -6 -32 c-3 -18 -8 -52 -12 -74 -6 -41 -6 -42 -55 -46 -55 -6 -85
-27 -105 -75 -28 -66 15 -135 94 -149 20 -4 54 -20 75 -36 41 -33 62 -32 69 4
3 13 19 75 36 139 17 64 38 166 47 228 15 103 15 114 1 136 l-16 25 -283 2
-282 3 -3 51 -3 52 263 3 263 4 49 29 c31 18 59 46 79 78 19 31 45 57 69 69
55 28 116 86 141 133 18 34 22 57 22 141 0 85 -3 106 -23 143 l-22 42 35 0
c62 0 99 28 118 91 8 26 -20 79 -48 89 -17 6 -316 10 -811 10 -629 0 -784 -3
-784 -13 0 -14 22 -47 56 -87 23 -26 259 -308 304 -363 23 -28 25 -38 25 -127
l0 -97 110 103 c61 57 141 135 179 173 41 42 74 67 82 64 16 -6 19 -23 4 -23
-5 0 -10 5 -10 10 0 6 -10 0 -22 -12 -13 -13 -22 -27 -20 -31 1 -5 -2 -6 -8
-2 -14 9 -13 -8 3 -25 10 -12 9 -12 -5 -1 -9 7 -22 10 -28 6 -13 -8 -13 -35 0
-35 6 0 10 -7 10 -15 0 -8 5 -15 11 -15 6 0 9 9 6 19 -4 15 0 19 14 16 11 -2
25 4 32 16 18 29 26 23 25 -21 0 -23 6 -46 16 -55 9 -9 21 -25 26 -36 8 -15 7
-17 -5 -13 -8 4 -15 1 -15 -5 0 -6 6 -11 14 -11 8 0 18 -4 21 -10 15 -24 -33
7 -67 42 -32 34 -42 39 -85 41 -42 2 -51 -1 -60 -19 -9 -19 -7 -21 11 -17 12
3 30 9 42 15 17 8 26 5 48 -15 14 -13 26 -29 26 -36 0 -6 9 -11 20 -11 36 0
21 -18 -20 -25 -22 -4 -40 -11 -40 -16 0 -5 -18 -9 -40 -9 -22 0 -40 -4 -40
-8 0 -11 -1 -11 175 -21 l150 -9 -208 2 c-181 2 -211 0 -235 -15 -34 -21 -396
-387 -410 -414 -22 -43 40 -89 82 -61 23 15 85 75 158 153 l46 50 7 -81 c4
-45 5 -121 2 -169 -2 -48 -2 -87 0 -87 2 0 37 34 77 76 l72 77 37 -18 c20 -9
37 -20 37 -22 0 -10 -63 -78 -264 -287 -111 -114 -202 -212 -204 -217 -2 -5
-13 -9 -25 -9 -11 0 -17 -3 -14 -7 4 -3 -2 -21 -14 -39 -17 -28 -18 -37 -8
-56 16 -30 28 -38 60 -38 20 0 42 16 85 61 33 34 70 73 84 88 14 14 35 38 46
53 l21 27 5 -167 c5 -143 3 -170 -11 -189 -9 -12 -23 -20 -31 -18 -21 6 -44
-10 -38 -27 4 -10 -4 -12 -36 -10 -22 3 -45 7 -51 11 -5 4 -45 7 -88 6 -59 0
-76 2 -73 12 4 9 -4 13 -24 13 l-30 0 2 -236 3 -236 175 1 175 1 60 63 c33 34
80 85 105 112 142 158 129 146 140 124 18 -33 14 -92 -10 -140 -30 -58 -212
-243 -265 -269 -39 -19 -62 -20 -373 -20 l-332 0 0 147 0 148 -148 -148 c-81
-81 -153 -147 -160 -147 -9 0 -12 271 -12 1290 l0 1290 -890 0 -890 0 0 243
c0 280 9 341 69 462 94 191 286 322 515 354 53 8 604 11 1736 11 l1659 0 21
22 c20 22 26 61 14 93 -17 44 -26 45 -708 45 l-644 0 87 83 c48 45 140 130
204 190 94 87 122 120 148 172 30 61 32 70 26 139 l-6 73 133 132 c151 148
188 170 282 171 86 0 149 -25 204 -80 53 -52 80 -118 79 -189 0 -48 -17 -107
-18 -67 -1 20 -1 20 -15 1 -13 -18 -16 -18 -33 -4 -22 19 -41 19 -54 -1 -8
-13 -11 -13 -20 3 -8 13 -14 15 -30 7 -19 -11 -29 3 -10 14 16 10 19 61 6 94
-16 37 -53 55 -93 46 -62 -15 -87 -72 -55 -127 l20 -32 -96 -85 c-169 -150
-174 -156 -167 -187 13 -52 24 -55 236 -51 l195 3 67 33 c244 120 281 465 71
663 -111 105 -279 143 -435 97 -40 -12 -149 -105 -268 -231 l-74 -77 -40 39
c-23 21 -60 48 -83 60 l-42 21 -35 -30 c-19 -17 -44 -50 -56 -74 -11 -24 -55
-77 -98 -117 -42 -41 -139 -136 -215 -211 -135 -135 -139 -138 -182 -138 -36
0 -47 5 -69 31 -30 36 -33 74 -8 109 9 14 123 129 252 257 603 593 570 558
570 592 0 60 -74 94 -124 56 -10 -8 -156 -150 -325 -317 -487 -481 -473 -468
-513 -468 -78 0 -122 82 -77 143 12 18 175 183 362 367 286 282 348 339 396
361 201 92 215 374 23 486 -41 25 -57 28 -132 28 -136 0 -159 -15 -408 -270
-116 -118 -213 -215 -217 -215 -3 0 -52 27 -108 59 -266 156 -644 295 -978
360 -198 38 -278 49 -474 61 -154 10 -208 10 -305 3z m2583 -183 c26 -29 29
-39 25 -79 -4 -45 -31 -91 -52 -91 -6 0 -5 5 2 12 22 22 12 30 -14 9 -14 -11
-32 -17 -40 -14 -8 3 -14 1 -14 -4 0 -5 -68 -77 -150 -159 -153 -152 -188
-184 -136 -126 29 31 29 32 7 32 -12 0 -20 -4 -16 -9 6 -10 -11 -24 -34 -28
-8 -1 -18 -8 -23 -15 -7 -9 -8 -8 -4 6 5 14 2 17 -13 13 -28 -7 -49 9 -33 25
10 10 14 10 21 0 6 -9 11 -9 26 2 18 13 17 14 -10 12 -17 -1 -35 -5 -41 -9 -7
-4 -14 0 -18 8 -3 8 -11 15 -18 14 -10 0 -10 -2 0 -6 6 -2 10 -9 6 -14 -3 -5
0 -9 6 -9 6 0 8 -4 5 -10 -4 -6 -13 -5 -25 2 -10 7 -16 17 -13 22 4 6 -16 -3
-43 -18 l-49 -29 40 44 c125 135 424 431 450 444 19 10 47 14 79 12 41 -4 55
-10 79 -37z m-2077 5 c129 -17 242 -37 339 -60 91 -21 308 -85 317 -93 3 -4
-15 -31 -42 -61 l-48 -54 -38 11 c-22 6 -93 26 -159 46 -114 33 -283 67 -406
81 -54 6 -57 8 -63 38 -4 17 -18 49 -31 69 l-25 38 23 0 c13 0 72 -7 133 -15z
m-329 -31 c194 -154 8 -443 -208 -322 -102 57 -126 204 -49 292 45 51 85 67
157 63 51 -2 69 -8 100 -33z m1309 -235 c75 -35 121 -129 109 -219 -6 -43 -34
-102 -35 -74 0 6 3 14 7 18 12 12 9 76 -3 76 -15 0 -39 -29 -30 -37 3 -3 -4
-11 -17 -18 -12 -6 -21 -17 -19 -24 1 -7 -2 -10 -7 -7 -5 4 -12 2 -16 -4 -8
-13 -106 -13 -139 0 -15 5 -40 30 -58 55 -21 30 -39 45 -54 45 -42 0 -18 -72
49 -147 11 -13 17 -23 13 -23 -11 0 -66 63 -66 76 0 7 -6 14 -12 17 -9 2 -13
28 -13 79 0 69 3 81 30 119 69 97 154 119 261 68z m54 -269 c0 -5 -5 -10 -11
-10 -5 0 -7 5 -4 10 3 6 8 10 11 10 2 0 4 -4 4 -10z m10 -54 c0 -3 -4 -8 -10
-11 -5 -3 -10 -1 -10 4 0 6 5 11 10 11 6 0 10 -2 10 -4z m1123 -684 c23 -23
31 -42 35 -80 5 -61 -7 -86 -58 -112 -49 -25 -61 -25 -109 0 -79 40 -90 133
-25 198 32 32 38 34 80 29 34 -3 55 -13 77 -35z m144 6 c-3 -8 -6 -5 -6 6 -1
11 2 17 5 13 3 -3 4 -12 1 -19z m-1502 -506 c-3 -3 -11 0 -18 7 -9 10 -8 11 6
5 10 -3 15 -9 12 -12z m-2140 -122 c-3 -5 -12 -10 -18 -10 -7 0 -6 4 3 10 19
12 23 12 15 0z m-155 -74 c0 -3 -4 -8 -10 -11 -5 -3 -10 -1 -10 4 0 6 5 11 10
11 6 0 10 -2 10 -4z m40 0 c0 -2 -8 -10 -17 -17 -16 -13 -17 -12 -4 4 13 16
21 21 21 13z m-70 -60 c-7 -7 -13 -7 -20 0 -6 6 -3 10 10 10 13 0 16 -4 10
-10z m221 -591 c1 -14 4 -10 9 10 8 32 11 -61 14 -407 l1 -188 -67 0 -68 0 -2
118 c-3 186 3 414 12 436 7 18 9 18 9 4 1 -12 9 -18 26 -18 26 0 35 24 13 33
-8 3 -6 6 5 6 9 1 17 -3 17 -9 0 -5 5 -10 10 -10 14 0 13 37 -2 42 -7 3 -8 10
-4 17 10 16 25 -3 27 -34z m-258 -27 c22 -27 22 -49 -4 -82 -40 -51 -113 -27
-113 39 0 70 72 96 117 43z m520 -179 c42 -22 49 -62 19 -99 -36 -45 -101 -19
-102 41 0 34 20 59 58 68 2 1 13 -4 25 -10z m-2116 -31 c-3 -8 -6 -5 -6 6 -1
11 2 17 5 13 3 -3 4 -12 1 -19z m-216 -48 c15 0 10 -17 -6 -24 -12 -4 -15 2
-14 27 1 18 3 24 6 15 2 -10 9 -18 14 -18z m1796 -80 c8 -15 12 -54 11 -100
-3 -62 -6 -75 -20 -78 -10 -2 -18 1 -18 7 0 6 8 8 18 5 10 -4 13 -3 6 3 -7 4
-14 17 -17 28 -4 18 -5 18 -6 -2 -1 -22 -10 -27 -38 -24 -7 1 -9 -7 -6 -19 5
-20 18 -26 26 -12 2 4 2 1 1 -5 -4 -16 1 -16 27 -3 11 6 19 7 19 1 0 -21 -61
-28 -78 -8 -6 6 -12 55 -15 107 -4 78 -3 98 11 113 22 25 63 18 79 -13z
m-1730 -202 c-3 -8 -6 -5 -6 6 -1 11 2 17 5 13 3 -3 4 -12 1 -19z m2304 -93
l16 -34 -36 27 c-49 35 -60 47 -34 33 30 -15 38 -14 23 4 -11 13 -10 14 1 10
8 -3 21 -21 30 -40z m-2347 -40 c-4 -8 -8 -15 -10 -15 -2 0 -4 7 -4 15 0 8 4
15 10 15 5 0 7 -7 4 -15z m6426 -40 c44 -42 58 -96 37 -140 -9 -19 -27 -41
-41 -50 -34 -22 -116 -47 -116 -35 0 6 -8 10 -17 10 -9 0 -25 8 -36 18 -19 16
-19 16 -16 -3 3 -11 14 -21 26 -23 25 -4 38 -29 23 -48 -13 -15 -50 -15 -49 1
1 5 -2 20 -6 33 -5 16 -11 20 -20 12 -9 -7 -14 2 -22 35 -8 35 -7 45 4 49 8 3
12 2 9 -3 -3 -5 2 -12 11 -15 14 -6 14 -8 -3 -22 -18 -14 -18 -15 3 -4 21 10
22 12 8 33 -17 26 -22 72 -11 107 6 18 1 15 -18 -13 -18 -26 -25 -46 -20 -59
4 -15 2 -19 -7 -15 -8 2 -13 10 -11 16 1 6 -7 11 -18 11 -21 0 -25 15 -21 79
l3 33 -79 -4 c-43 -3 -60 -3 -38 1 39 5 38 5 -20 12 -33 3 1 4 75 1 161 -6
150 -6 175 4 18 7 19 6 5 -10 -12 -15 -8 -14 20 3 51 32 129 25 170 -14z
m-6420 -12 c-11 -17 -11 -17 -6 0 3 10 6 24 7 30 0 9 2 9 5 0 3 -7 0 -20 -6
-30z m-23 -5 c-3 -8 -6 -5 -6 6 -1 11 2 17 5 13 3 -3 4 -12 1 -19z m2208 -10
c105 -56 184 -167 185 -260 l0 -48 -55 0 -55 0 -24 48 c-27 54 -82 107 -132
128 -25 11 -95 14 -291 14 -142 0 -295 3 -340 7 l-83 6 0 69 0 69 373 -3 372
-3 50 -27z m3845 -28 c11 -6 25 -28 31 -50 31 -103 -83 -170 -162 -94 -23 22
-26 30 -18 62 15 70 93 112 149 82z m-2764 -49 c43 -19 85 -66 103 -113 9 -24
7 -28 -27 -49 -20 -12 -50 -22 -66 -23 -25 -1 -31 4 -39 32 -18 59 -75 33
-110 -48 -14 -33 -677 -701 -772 -777 -22 -18 -54 -44 -71 -58 -45 -35 -55
-31 -14 5 27 24 31 30 15 28 -11 -2 -26 -10 -33 -18 -10 -11 -15 -12 -18 -2
-8 17 -22 15 -27 -5 -4 -14 -5 -12 -6 5 0 12 4 22 9 22 6 0 10 7 10 16 0 14
-3 14 -15 4 -12 -10 -15 -9 -15 6 0 16 -2 17 -10 4 -8 -13 -10 -12 -10 3 0 9
5 17 10 17 6 0 10 5 10 12 0 6 -8 3 -20 -7 -11 -10 -17 -22 -14 -26 3 -5 0 -9
-5 -9 -20 0 -11 25 20 60 116 129 891 898 924 917 49 28 114 30 171 4z m2798
-136 c-4 -8 -10 -12 -15 -9 -11 6 -2 24 11 24 5 0 7 -7 4 -15z m-111 -12 c-7
-2 -19 -2 -25 0 -7 3 -2 5 12 5 14 0 19 -2 13 -5z m-3979 -42 c67 -27 125 -98
126 -153 0 -34 -25 -37 -63 -8 -56 44 -88 50 -270 50 l-174 0 -14 53 c-9 29
-13 59 -11 66 6 17 363 10 406 -8z m4230 -16 c-9 -14 -24 -25 -33 -25 -11 0
-7 7 14 25 38 31 39 31 19 0z m36 0 c-7 -8 -17 -15 -23 -15 -6 0 -2 7 9 15 25
19 30 19 14 0z m-6386 -53 c4 -30 3 -58 -1 -61 -4 -3 -9 -19 -10 -34 -1 -15
-13 -41 -27 -57 -15 -19 -22 -37 -19 -50 3 -11 0 -20 -6 -20 -6 0 -12 15 -12
33 -4 106 -3 132 8 146 7 9 12 25 12 36 0 13 -7 6 -19 -20 -10 -22 -16 -51
-13 -64 4 -17 3 -22 -7 -16 -7 4 -10 18 -6 34 3 14 8 41 12 59 3 17 12 32 20
32 8 0 14 4 14 10 0 20 -33 -4 -46 -34 -7 -17 -13 -25 -14 -18 0 15 17 50 34
68 6 6 25 12 42 12 31 0 32 -1 38 -56z m6289 21 c-7 -2 -19 -2 -25 0 -7 3 -2
5 12 5 14 0 19 -2 13 -5z m-2955 -9 c54 -11 52 -84 -3 -84 -42 0 -55 11 -55
44 0 47 5 50 58 40z m-818 -183 l0 -67 -55 -54 -55 -54 0 124 0 125 55 -3 55
-4 0 -67z m-465 -36 c42 -41 25 -105 -31 -119 -53 -14 -105 49 -83 98 22 48
78 58 114 21z m1910 -196 c-6 -18 -4 -20 14 -14 12 4 21 2 21 -4 0 -6 -7 -11
-15 -11 -9 0 -12 -6 -9 -15 4 -10 20 -15 50 -15 38 0 44 -3 50 -24 3 -14 13
-27 22 -29 14 -4 13 -6 -5 -12 -13 -4 -21 -11 -18 -15 3 -5 -19 -35 -48 -67
-87 -96 -107 -123 -100 -139 3 -8 -2 -21 -12 -28 -20 -14 -14 -20 28 -30 20
-5 27 -12 27 -31 0 -14 5 -25 10 -25 6 0 9 5 8 12 -2 7 11 13 30 15 24 2 32
-1 32 -13 0 -9 9 -27 20 -41 16 -20 20 -22 20 -9 0 20 33 14 65 -13 15 -12 17
-12 8 -1 -9 11 -8 19 1 33 15 19 36 23 36 6 0 -5 5 -7 12 -3 9 6 9 9 0 12 -20
6 -13 22 10 22 12 0 19 -3 15 -6 -3 -3 2 -14 11 -24 13 -16 19 -17 31 -7 20
15 -29 -43 -133 -157 -45 -49 -80 -96 -79 -104 1 -9 -77 66 -174 166 -96 100
-184 187 -194 193 -24 12 -65 -8 -134 -66 -54 -45 -125 -94 -165 -115 -14 -7
79 92 205 220 278 281 320 321 328 315 4 -3 5 -2 2 2 -5 6 23 43 32 43 2 0 1
-9 -2 -21z m45 11 c0 -5 -5 -10 -11 -10 -5 0 -7 5 -4 10 3 6 8 10 11 10 2 0 4
-4 4 -10z m15 -50 c3 -6 -4 -10 -17 -10 -18 0 -20 2 -8 10 19 12 18 12 25 0z
m-3368 -26 c39 -19 80 -68 93 -113 6 -23 5 -31 -4 -31 -7 0 -44 -20 -82 -45
-80 -53 -130 -60 -164 -23 l-20 22 -63 -61 c-34 -33 -84 -81 -112 -107 -188
-178 -244 -237 -239 -254 5 -14 4 -15 -5 -2 -9 13 -19 7 -60 -35 -37 -36 -47
-51 -38 -58 8 -6 7 -7 -4 -4 -10 3 -28 -7 -46 -26 -16 -18 -66 -65 -111 -106
-45 -41 -82 -80 -82 -87 0 -7 -5 -16 -12 -20 -7 -5 -8 -3 -3 6 5 8 4 11 -3 7
-5 -4 -8 -16 -5 -26 6 -24 33 -16 33 9 0 25 27 50 52 50 28 0 58 -28 58 -55 0
-29 -64 -90 -86 -81 -14 5 -15 4 -4 -9 11 -13 10 -14 -2 -10 -8 3 -21 -2 -29
-11 -12 -16 -12 -17 4 -11 11 4 16 3 12 -3 -3 -6 -13 -10 -21 -10 -8 0 -13 -4
-10 -8 8 -13 -26 -37 -77 -57 -88 -33 -176 1 -192 75 -5 22 -10 27 -26 23 -14
-4 -18 -11 -14 -27 5 -17 4 -18 -4 -6 -18 25 -12 83 12 121 12 19 194 202 403
407 l381 371 36 -10 c28 -7 45 -6 73 6 40 17 47 24 101 105 20 30 43 61 52 68
53 43 146 55 208 26z m1573 2 c0 -2 -8 -10 -17 -17 -16 -13 -17 -12 -4 4 13
16 21 21 21 13z m14 -28 c-60 -71 -69 -77 -84 -68 -12 8 -12 10 -1 10 10 0 11
3 2 14 -9 10 -8 15 3 19 10 4 13 1 9 -9 -3 -8 1 -14 10 -14 10 0 14 7 10 23
-3 15 -2 18 4 9 7 -9 15 -6 33 13 29 31 40 33 14 3z m476 -232 c0 -2 -8 -10
-17 -17 -16 -13 -17 -12 -4 4 13 16 21 21 21 13z m-390 -10 c0 -3 -4 -8 -10
-11 -5 -3 -10 -1 -10 4 0 6 5 11 10 11 6 0 10 -2 10 -4z m1700 -67 c0 -5 -4
-9 -10 -9 -5 0 -10 7 -10 16 0 8 5 12 10 9 6 -3 10 -10 10 -16z m90 -54 c0 -8
5 -15 12 -15 6 0 9 -2 6 -5 -3 -3 -13 -3 -22 1 -17 7 -22 34 -6 34 6 0 10 -7
10 -15z m155 -3 c-3 -3 -11 0 -18 7 -9 10 -8 11 6 5 10 -3 15 -9 12 -12z
m-185 -8 c0 -8 -5 -12 -10 -9 -6 4 -8 11 -5 16 9 14 15 11 15 -7z m1837 -26
c13 -12 23 -30 23 -40 0 -22 -18 -60 -34 -70 -38 -26 -106 15 -106 63 0 61 71
90 117 47z m-5077 -187 c0 -5 -7 -12 -16 -15 -14 -5 -15 -4 -4 9 14 17 20 19
20 6z m-49 -128 c13 -16 12 -17 -3 -4 -17 13 -22 21 -14 21 2 0 10 -8 17 -17z
m-721 -7 c0 -2 -8 -10 -17 -17 -16 -13 -17 -12 -4 4 13 16 21 21 21 13z m1153
-21 c4 -8 3 -16 -1 -19 -4 -3 -9 4 -9 15 -2 23 3 25 10 4z m2987 5 c0 -5 -5
-10 -11 -10 -5 0 -7 5 -4 10 3 6 8 10 11 10 2 0 4 -4 4 -10z m-3355 -60 l20
-25 -22 19 c-13 11 -23 24 -23 29 0 6 1 8 3 6 1 -2 11 -15 22 -29z m4609 -55
c11 -8 16 -18 12 -22 -4 -4 -11 -1 -16 6 -4 8 -25 16 -46 18 -52 5 -57 13 -8
13 21 0 48 -7 58 -15z m-197 -57 c-2 -13 -4 -3 -4 22 0 25 2 35 4 23 2 -13 2
-33 0 -45z m173 18 c0 -14 -4 -28 -10 -31 -6 -4 -10 7 -10 24 0 17 5 31 10 31
6 0 10 -11 10 -24z m-40 -57 c0 -14 -17 -10 -23 5 -4 10 -1 13 9 9 7 -3 14 -9
14 -14z m39 4 c-46 -57 -76 -81 -90 -71 -12 8 -12 9 0 6 8 -2 32 15 54 39 39
42 63 60 36 26z m-164 -42 c3 -5 1 -12 -5 -16 -5 -3 -10 1 -10 9 0 18 6 21 15
7z m35 -95 c0 -2 -8 -10 -17 -17 -16 -13 -17 -12 -4 4 13 16 21 21 21 13z
m-4769 -233 c12 -21 35 -55 51 -75 28 -36 28 -37 8 -51 -11 -8 -91 -83 -178
-167 -332 -324 -399 -388 -453 -433 -61 -51 -65 -53 -72 -34 -2 6 -2 2 0 -10
4 -24 -12 -32 -20 -10 -3 9 -7 9 -20 -2 -21 -17 -22 -8 -1 13 8 9 11 16 5 16
-5 0 -17 -7 -26 -16 -19 -20 -21 -18 -32 25 -8 33 -33 56 -33 31 0 -6 4 -8 10
-5 6 3 7 -1 3 -10 -4 -13 -8 -14 -14 -4 -9 15 -8 15 -32 -21 -9 -13 -17 -20
-17 -13 0 19 101 124 450 465 190 186 346 338 347 338 1 0 12 -17 24 -37z
m576 -133 c18 -10 45 -38 60 -61 23 -35 28 -54 29 -104 0 -38 -5 -66 -13 -74
-10 -9 -13 -9 -13 4 0 9 -5 13 -10 10 -6 -4 -8 -14 -5 -24 3 -11 -5 -26 -22
-42 l-28 -24 23 26 c26 30 27 35 8 42 -10 4 -13 1 -10 -7 3 -8 0 -17 -7 -22
-8 -5 -10 -3 -4 7 6 11 5 12 -6 2 -7 -7 -19 -13 -25 -13 -7 0 -28 -14 -46 -31
-41 -38 -100 -69 -131 -69 -60 0 -127 79 -127 150 0 31 11 45 95 128 126 123
168 141 232 102z m-487 -130 c0 -5 -5 -10 -11 -10 -5 0 -7 5 -4 10 3 6 8 10
11 10 2 0 4 -4 4 -10z m3765 -310 c40 -44 10 -120 -47 -120 -27 0 -68 30 -68
49 0 5 -2 16 -5 23 -3 8 4 26 15 41 27 34 78 37 105 7z m389 -141 c39 -31 49
-63 32 -104 -19 -45 -58 -56 -91 -25 -29 27 -46 19 -101 -46 -88 -105 -100
-111 -148 -73 -19 15 -26 30 -26 53 0 37 19 58 68 74 19 6 64 41 100 77 57 56
72 65 103 65 22 0 47 -8 63 -21z m-2874 -149 c29 -29 26 -74 -6 -99 -52 -41
-117 -13 -117 49 0 62 79 94 123 50z m2097 -82 c38 -36 27 -89 -24 -116 -31
-17 -37 -15 -67 14 -31 32 -33 62 -5 98 25 32 64 34 96 4z m-2427 -68 c-36
-22 -7 -60 31 -39 15 8 24 7 36 -3 15 -12 15 -11 4 10 -6 12 -16 22 -21 22 -6
0 -10 5 -10 12 0 6 11 1 25 -12 31 -29 32 -60 3 -87 -35 -32 -87 -26 -110 12
-9 17 -15 40 -12 51 5 20 54 57 64 48 2 -3 -2 -9 -10 -14z m25 -20 c3 -6 -1
-7 -9 -4 -18 7 -21 14 -7 14 6 0 13 -4 16 -10z m1258 -119 c15 -10 35 -28 43
-40 15 -20 14 -21 -23 -21 -73 0 -112 -41 -79 -83 10 -13 39 -20 122 -28 116
-12 193 -7 206 14 6 9 8 9 8 -1 0 -20 -45 -32 -121 -32 -64 0 -74 -3 -111 -32
-36 -29 -47 -33 -103 -33 -54 0 -67 4 -90 25 -41 38 -58 78 -52 122 14 101
122 161 200 109z m-755 -17 c22 -6 22 -8 6 -25 -20 -23 -70 -25 -78 -4 -6 17
-76 21 -76 5 0 -5 -7 -10 -15 -10 -8 0 -15 -5 -15 -11 0 -5 -4 -7 -10 -4 -5 3
-10 1 -10 -5 0 -6 -5 -8 -12 -4 -7 4 -8 3 -4 -5 4 -6 12 -8 18 -5 7 5 9 1 5
-9 -5 -13 -1 -17 16 -16 12 0 16 3 10 6 -21 8 -15 23 10 23 15 0 18 3 9 9 -10
6 -10 10 1 19 18 16 69 12 63 -5 -3 -6 -2 -14 2 -16 4 -2 2 -3 -3 -1 -6 1 -19
-4 -30 -12 -17 -13 -17 -14 13 -14 20 0 35 6 38 15 4 8 15 15 26 15 18 0 17
-3 -8 -22 -37 -30 -153 -39 -173 -14 -24 28 1 63 56 80 51 15 123 20 161 10z
m1647 -55 c-28 -28 -73 -66 -101 -84 -68 -45 -198 -95 -216 -83 -10 7 -10 9 2
7 26 -2 40 1 38 9 -1 4 3 17 10 30 16 27 8 42 -21 43 -21 0 -21 1 -2 9 18 8
18 9 2 9 -10 1 -24 7 -31 14 -11 11 -6 13 25 14 21 1 41 -2 44 -8 10 -16 25
-10 25 11 0 22 -39 37 -67 24 -10 -4 -21 -7 -25 -6 -3 1 -12 -5 -18 -13 -7 -8
-9 -15 -5 -15 4 0 2 -6 -4 -14 -10 -12 -8 -13 9 -9 15 4 19 2 14 -10 -3 -9
-14 -19 -24 -22 -11 -3 -22 -16 -26 -27 -6 -21 -7 -21 -21 3 -8 13 -12 16 -9
6 3 -11 2 -15 -4 -12 -6 3 -10 1 -10 -4 0 -6 4 -11 10 -11 6 0 9 -3 9 -7 -3
-18 2 -34 9 -30 4 3 13 -1 20 -9 18 -20 -7 -19 -36 2 -56 39 4 149 108 197 43
20 85 25 310 35 l34 2 -49 -51z m-623 -47 c11 -13 10 -14 -9 -4 -12 7 -34 12
-50 13 -24 0 -25 2 -8 8 25 10 51 3 67 -17z m-92 -13 c0 -5 -4 -9 -10 -9 -5 0
-10 7 -10 16 0 8 5 12 10 9 6 -3 10 -10 10 -16z m-55 -9 c-17 -19 -17 -20 0
-20 10 0 16 -3 12 -6 -3 -3 -15 -3 -28 1 -17 6 -19 9 -8 16 8 5 10 9 6 9 -16
0 4 20 20 20 14 0 14 -3 -2 -20z m108 13 c-7 -2 -21 -2 -30 0 -10 3 -4 5 12 5
17 0 24 -2 18 -5z m10 -30 c-7 -2 -19 -2 -25 0 -7 3 -2 5 12 5 14 0 19 -2 13
-5z m314 -79 c-3 -3 -12 -4 -19 -1 -8 3 -5 6 6 6 11 1 17 -2 13 -5z"/>
<path d="M7432 8498 c-14 -14 -15 -37 -3 -57 6 -10 13 -5 25 19 9 18 16 35 16
37 0 8 -27 -23 -33 -37 -4 -10 -6 -8 -6 7 -1 12 5 23 12 26 6 2 9 7 6 10 -3 4
-11 1 -17 -5z"/>
<path d="M7465 8460 c-4 -6 0 -22 9 -35 11 -17 13 -26 4 -31 -6 -4 -9 -3 -6 2
3 5 0 14 -7 21 -10 10 -14 9 -19 -2 -7 -20 21 -40 37 -26 8 6 17 8 20 4 4 -3
7 -2 7 4 0 5 -9 18 -20 28 -11 10 -20 23 -20 28 0 6 12 0 28 -14 l27 -24 -24
28 c-28 31 -28 31 -36 17z"/>
<path d="M3923 5614 c-7 -3 -9 -12 -6 -21 4 -11 2 -14 -5 -9 -8 5 -12 -4 -12
-28 0 -20 5 -36 10 -36 6 0 10 -16 10 -36 0 -21 4 -33 10 -29 6 3 10 39 11 78
1 51 3 65 9 47 8 -24 8 -23 9 8 1 31 -7 37 -36 26z"/>
<path d="M3971 5514 c0 -11 3 -14 6 -6 3 7 2 16 -1 19 -3 4 -6 -2 -5 -13z"/>
<path d="M8331 5177 c-5 -7 -6 -19 -2 -26 6 -9 10 -10 15 -2 4 6 12 9 17 6 5
-4 9 0 9 8 0 20 -26 29 -39 14z"/>
<path d="M8470 4964 c0 -8 5 -12 10 -9 6 3 10 10 10 16 0 5 -4 9 -10 9 -5 0
-10 -7 -10 -16z"/>
<path d="M4451 4124 c0 -11 3 -14 6 -6 3 7 2 16 -1 19 -3 4 -6 -2 -5 -13z"/>
<path d="M2039 4904 c-1 -5 -1 -12 0 -16 0 -5 -3 -8 -9 -8 -5 0 -10 -17 -9
-37 l0 -38 15 49 c9 26 13 51 10 54 -3 3 -7 1 -7 -4z"/>
<path d="M6088 4383 c7 -3 16 -2 19 1 4 3 -2 6 -13 5 -11 0 -14 -3 -6 -6z"/>
<path d="M6112 4340 c0 -14 2 -19 5 -12 2 6 2 18 0 25 -3 6 -5 1 -5 -13z"/>
<path d="M6090 3970 c0 -5 5 -10 10 -10 6 0 10 -7 10 -17 0 -9 3 -14 6 -10 8
8 -5 47 -17 47 -5 0 -9 -4 -9 -10z"/>
<path d="M6179 3933 c-13 -16 -12 -17 4 -4 16 13 21 21 13 21 -2 0 -10 -8 -17
-17z"/>
<path d="M1850 3696 c0 -8 4 -17 9 -20 11 -7 33 18 24 27 -12 12 -33 7 -33 -7z"/>
<path d="M1885 2330 c-3 -5 -1 -10 4 -10 6 0 11 5 11 10 0 6 -2 10 -4 10 -3 0
-8 -4 -11 -10z"/>
<path d="M1983 2315 c-9 -24 1 -27 15 -5 8 13 8 20 2 20 -6 0 -13 -7 -17 -15z"/>
<path d="M3615 1990 c-7 -11 22 -60 36 -60 4 0 14 7 21 15 7 9 19 22 26 30 10
11 9 14 -8 12 -14 -1 -19 -6 -15 -16 5 -13 3 -13 -12 1 -29 24 -41 29 -48 18z"/>
<path d="M4060 1840 c0 -5 5 -10 10 -10 6 0 10 5 10 10 0 6 -4 10 -10 10 -5 0
-10 -4 -10 -10z"/>
<path d="M5765 1810 c-3 -5 -1 -10 4 -10 6 0 11 5 11 10 0 6 -2 10 -4 10 -3 0
-8 -4 -11 -10z"/>
<path d="M5635 1750 c-8 -13 15 -13 35 0 12 8 11 10 -7 10 -12 0 -25 -4 -28
-10z"/>
<path d="M5650 1730 c-8 -5 -10 -10 -5 -10 6 0 17 5 25 10 8 5 11 10 5 10 -5
0 -17 -5 -25 -10z"/>
<path d="M5608 1713 c7 -3 16 -2 19 1 4 3 -2 6 -13 5 -11 0 -14 -3 -6 -6z"/>
<path d="M8409 8645 c-28 -15 -59 -70 -59 -104 0 -41 28 -89 61 -106 80 -42
179 19 179 111 0 39 -5 51 -34 80 -28 28 -41 34 -77 34 -24 -1 -56 -7 -70 -15z"/>
<path d="M3140 8620 c8 -5 20 -10 25 -10 6 0 3 5 -5 10 -8 5 -19 10 -25 10 -5
0 -3 -5 5 -10z"/>
<path d="M3092 8608 c-17 -22 -22 -52 -11 -68 9 -12 10 -12 5 4 -6 16 -4 17
10 5 9 -7 28 -13 42 -14 16 0 26 -5 25 -12 -2 -7 2 -13 8 -13 7 0 9 9 6 21 -4
15 -2 19 8 15 10 -3 12 2 10 16 -5 24 -22 38 -47 38 -9 0 -20 5 -23 10 -8 14
-20 13 -33 -2z m22 -13 c-5 -11 -1 -14 12 -9 16 5 16 4 4 -5 -17 -12 -36 1
-26 18 10 16 16 13 10 -4z m36 -35 c12 -8 9 -10 -13 -10 -16 0 -26 4 -22 10 8
12 16 12 35 0z"/>
<path d="M3120 8506 c0 -2 7 -7 16 -10 8 -3 12 -2 9 4 -6 10 -25 14 -25 6z"/>
<path d="M8147 8344 c-54 -29 -62 -100 -18 -145 37 -37 79 -38 120 -3 82 69
-9 200 -102 148z"/>
<path d="M3915 8291 c-156 -55 -309 -127 -451 -212 -113 -68 -113 -68 -68
-126 20 -26 37 -49 38 -51 2 -1 41 21 87 49 112 68 286 151 428 205 64 24 122
51 129 61 20 27 14 60 -14 82 -34 27 -52 26 -149 -8z"/>
<path d="M2076 7885 c-41 -22 -55 -44 -54 -88 0 -40 10 -43 14 -4 1 12 3 24 3
27 1 3 6 -2 11 -10 6 -10 10 -11 10 -2 0 6 12 12 26 12 20 0 25 -4 20 -16 -8
-22 19 -81 41 -88 31 -9 75 0 90 19 16 23 17 75 1 110 -23 51 -103 71 -162 40z"/>
<path d="M5945 7879 c-4 -6 -14 -8 -22 -5 -8 3 -11 1 -8 -4 9 -15 31 -12 45 5
8 9 9 15 2 15 -6 0 -14 -5 -17 -11z"/>
<path d="M8640 7410 c0 -5 5 -10 10 -10 6 0 10 5 10 10 0 6 -4 10 -10 10 -5 0
-10 -4 -10 -10z"/>
<path d="M1467 7015 c-62 -59 -73 -93 -36 -118 31 -22 51 -11 125 65 l68 70
-30 13 c-66 28 -67 27 -127 -30z"/>
<path d="M1158 6546 c-6 -14 -7 -33 -4 -43 6 -14 10 -10 22 22 17 48 16 45 4
45 -6 0 -15 -11 -22 -24z"/>
<path d="M1191 6543 c-9 -19 -9 -29 -1 -37 8 -8 10 -7 5 5 -3 9 1 22 11 30 15
12 16 12 11 -6 -8 -23 27 -53 38 -34 10 15 -4 61 -15 54 -6 -3 -10 -1 -10 4 0
21 -27 10 -39 -16z"/>
<path d="M1210 6480 c-13 -8 -12 -10 3 -10 9 0 17 5 17 10 0 12 -1 12 -20 0z"/>
<path d="M5528 6253 c7 -3 16 -2 19 1 4 3 -2 6 -13 5 -11 0 -14 -3 -6 -6z"/>
<path d="M7440 6228 c-14 -17 -91 -98 -173 -180 l-147 -148 402 -2 c784 -5
938 -4 938 9 0 6 -50 72 -111 145 -61 73 -123 150 -137 170 -25 35 -30 38 -79
38 -29 0 -53 -4 -53 -8 0 -4 -50 -62 -110 -127 -71 -77 -116 -119 -127 -117
-9 2 -26 16 -37 30 -12 15 -42 49 -68 77 -26 27 -62 71 -80 97 l-33 47 -80 1
c-78 0 -81 -1 -105 -32z"/>
<path d="M3290 6199 c-7 -11 -10 -23 -7 -25 2 -2 9 7 15 21 14 30 7 33 -8 4z"/>
<path d="M3256 6123 c-6 -14 -5 -15 5 -6 7 7 10 15 7 18 -3 3 -9 -2 -12 -12z"/>
<path d="M3236 6083 c-6 -14 -5 -15 5 -6 7 7 10 15 7 18 -3 3 -9 -2 -12 -12z"/>
<path d="M1065 6050 c-3 -6 1 -7 9 -4 18 7 21 14 7 14 -6 0 -13 -4 -16 -10z"/>
<path d="M3215 6039 c-4 -6 -5 -12 -2 -15 2 -3 7 2 10 11 7 17 1 20 -8 4z"/>
<path d="M2170 6031 c0 -22 44 -61 75 -67 50 -9 103 3 116 27 10 20 9 20 -20
5 -50 -26 -108 -21 -142 13 -16 16 -29 26 -29 22z"/>
<path d="M3182 5951 c-6 -17 -9 -31 -6 -31 7 0 25 52 20 57 -2 2 -8 -10 -14
-26z"/>
<path d="M5798 5903 c23 -2 61 -2 85 0 23 2 4 4 -43 4 -47 0 -66 -2 -42 -4z"/>
<path d="M6078 5903 c45 -2 119 -2 165 0 45 1 8 3 -83 3 -91 0 -128 -2 -82 -3z"/>
<path d="M3161 5893 c-1 -6 -4 -20 -7 -30 -5 -17 -5 -17 6 0 6 10 9 23 6 30
-3 9 -5 9 -5 0z"/>
<path d="M3340 5806 c0 -2 7 -7 16 -10 8 -3 12 -2 9 4 -6 10 -25 14 -25 6z"/>
<path d="M3131 5793 c-1 -6 -4 -20 -7 -30 -5 -17 -5 -17 6 0 6 10 9 23 6 30
-3 9 -5 9 -5 0z"/>
<path d="M1987 5726 c-4 -10 -7 -25 -6 -34 0 -11 4 -9 10 7 5 13 8 29 6 35 -2
5 -6 2 -10 -8z"/>
<path d="M3106 5694 c-4 -20 -5 -38 -2 -41 2 -3 8 11 12 31 3 21 4 39 1 42 -2
3 -8 -11 -11 -32z"/>
<path d="M2421 5704 c0 -11 3 -14 6 -6 3 7 2 16 -1 19 -3 4 -6 -2 -5 -13z"/>
<path d="M2406 5634 c-4 -14 -5 -28 -3 -31 3 -2 8 8 11 23 4 14 5 28 3 31 -3
2 -8 -8 -11 -23z"/>
<path d="M1964 5595 c-3 -25 -4 -49 0 -52 3 -4 6 8 6 26 0 18 4 30 9 27 4 -3
6 6 3 19 -6 35 -10 31 -18 -20z"/>
<path d="M3092 5620 c0 -14 2 -19 5 -12 2 6 2 18 0 25 -3 6 -5 1 -5 -13z"/>
<path d="M3083 5545 c0 -22 2 -30 4 -17 2 12 2 30 0 40 -3 9 -5 -1 -4 -23z"/>
<path d="M2007 5563 c-10 -10 -8 -33 2 -33 6 0 9 9 8 20 -1 23 -1 22 -10 13z"/>
<path d="M2373 5553 c-7 -2 -13 -14 -13 -25 0 -14 5 -18 15 -14 18 6 18 2 5
-43 -5 -19 -6 -39 -2 -45 7 -11 20 54 21 107 1 27 -3 30 -26 20z"/>
<path d="M1946 5469 c-6 -34 -8 -135 -2 -128 5 5 16 159 12 159 -2 0 -6 -14
-10 -31z"/>
<path d="M2352 5465 c0 -16 2 -22 5 -12 2 9 2 23 0 30 -3 6 -5 -1 -5 -18z"/>
<path d="M3072 5465 c0 -16 2 -22 5 -12 2 9 2 23 0 30 -3 6 -5 -1 -5 -18z"/>
<path d="M2321 5414 c0 -11 3 -14 6 -6 3 7 2 16 -1 19 -3 4 -6 -2 -5 -13z"/>
<path d="M3063 5375 c0 -27 2 -38 4 -22 2 15 2 37 0 50 -2 12 -4 0 -4 -28z"/>
<path d="M2373 5300 c0 -36 2 -50 4 -32 2 17 2 47 0 65 -2 17 -4 3 -4 -33z"/>
<path d="M1961 5244 c0 -11 3 -14 6 -6 3 7 2 16 -1 19 -3 4 -6 -2 -5 -13z"/>
<path d="M7935 5080 c-3 -5 -1 -10 4 -10 6 0 11 5 11 10 0 6 -2 10 -4 10 -3 0
-8 -4 -11 -10z"/>
<path d="M7885 5029 c-11 -16 -1 -19 13 -3 7 8 8 14 3 14 -5 0 -13 -5 -16 -11z"/>
<path d="M7343 4640 c0 -47 2 -66 4 -42 2 23 2 61 0 85 -2 23 -4 4 -4 -43z"/>
<path d="M7496 4705 c-11 -8 -17 -17 -14 -20 2 -3 13 4 23 15 21 23 18 25 -9
5z"/>
<path d="M7308 4648 c-4 -59 0 -88 13 -88 5 0 9 32 9 70 0 82 -16 94 -22 18z"/>
<path d="M7361 4673 c-1 -18 4 -33 9 -33 12 0 12 17 0 45 -7 17 -9 15 -9 -12z"/>
<path d="M7450 4670 c-8 -5 -12 -12 -9 -15 4 -3 12 1 19 10 14 17 11 19 -10 5z"/>
<path d="M7366 4615 c-9 -26 -7 -32 5 -12 6 10 9 21 6 23 -2 3 -7 -2 -11 -11z"/>
<path d="M7394 4605 c-9 -14 -15 -27 -13 -30 3 -2 12 10 21 26 21 36 15 39 -8
4z"/>
<path d="M1047 4510 c-55 -43 -25 -140 44 -140 62 0 102 83 65 133 -22 29 -76
33 -109 7z"/>
<path d="M1670 4329 c11 -8 6 -9 -20 -5 l-35 6 33 -30 c34 -31 42 -60 17 -60
-8 0 -20 9 -27 20 -7 11 -18 20 -25 20 -7 0 -13 6 -13 12 0 7 -8 1 -17 -12
-19 -28 -34 -40 -48 -39 -5 0 -4 3 3 6 13 5 17 23 4 23 -5 0 -17 -7 -28 -16
-10 -8 -14 -13 -7 -10 6 4 13 2 15 -4 2 -6 40 -12 86 -14 79 -3 82 -3 82 19 0
13 7 25 15 29 9 3 15 0 15 -8 0 -8 -6 -16 -12 -19 -7 -2 -10 -8 -6 -12 12 -12
28 5 28 30 0 15 -7 26 -21 30 -14 5 -19 13 -16 26 4 14 0 19 -16 19 -18 0 -20
-2 -7 -11z"/>
<path d="M2006 4202 c0 -14 7 -28 15 -30 11 -3 11 -1 -1 7 -8 6 -10 11 -4 11
14 0 14 28 0 33 -7 3 -11 -6 -10 -21z"/>
<path d="M2050 4206 c0 -2 7 -7 16 -10 8 -3 12 -2 9 4 -6 10 -25 14 -25 6z"/>
<path d="M7303 3920 c0 -47 2 -66 4 -42 2 23 2 61 0 85 -2 23 -4 4 -4 -43z"/>
<path d="M1230 3847 c-32 -16 -52 -59 -44 -92 8 -31 49 -65 80 -65 32 0 73 39
80 76 11 58 -62 109 -116 81z"/>
<path d="M8634 3826 c-39 -17 -46 -28 -47 -71 -1 -46 26 -75 70 -75 46 0 69
14 81 48 13 38 -8 89 -43 102 -15 6 -27 10 -28 10 -1 -1 -16 -7 -33 -14z"/>
<path d="M7530 3760 c-9 -6 -10 -10 -3 -10 6 0 15 5 18 10 8 12 4 12 -15 0z"/>
<path d="M1091 3154 c-37 -47 -24 -102 29 -124 24 -10 36 -10 60 0 36 15 50
37 50 79 0 69 -96 100 -139 45z"/>
<path d="M1886 3151 c-14 -15 -15 -21 -4 -27 7 -4 10 -3 5 1 -4 5 0 17 10 27
9 10 14 18 11 18 -3 0 -13 -9 -22 -19z"/>
<path d="M1795 3079 c-4 -5 3 -8 14 -6 28 4 34 12 11 14 -11 1 -22 -2 -25 -8z"/>
<path d="M7826 2545 c-19 -29 -22 -57 -3 -32 11 16 12 15 12 -7 0 -13 -4 -22
-8 -19 -5 3 -4 -4 2 -15 13 -25 36 -34 68 -26 18 5 21 9 11 15 -10 7 -10 9 2
9 20 0 19 78 -1 91 -27 17 -66 10 -83 -16z"/>
<path d="M1424 2498 l-19 -23 23 19 c21 18 27 26 19 26 -2 0 -12 -10 -23 -22z"/>
<path d="M1297 2380 c-9 -11 -13 -20 -8 -20 11 0 35 29 29 35 -2 2 -12 -4 -21
-15z"/>
<path d="M1217 2293 c-4 -3 -7 -11 -7 -17 0 -6 5 -5 12 2 6 6 9 14 7 17 -3 3
-9 2 -12 -2z"/>
<path d="M1243 2251 c0 -11 5 -18 9 -15 4 3 5 11 1 19 -7 21 -12 19 -10 -4z"/>
<path d="M1216 2236 c16 -24 19 -40 4 -31 -16 10 -12 -5 11 -36 11 -16 26 -29
32 -28 9 0 8 2 0 6 -7 2 -13 11 -13 19 0 8 -4 14 -10 14 -5 0 -9 8 -8 18 3 38
-3 59 -16 59 -13 0 -13 -3 0 -21z"/>
<path d="M1395 2180 c-3 -6 1 -7 9 -4 18 7 21 14 7 14 -6 0 -13 -4 -16 -10z"/>
<path d="M7869 2161 c-34 -35 -36 -59 -9 -94 26 -32 50 -40 83 -28 62 24 72
102 18 134 -41 24 -58 21 -92 -12z"/>
<path d="M3005 2170 c-3 -5 1 -10 10 -10 9 0 13 5 10 10 -3 6 -8 10 -10 10 -2
0 -7 -4 -10 -10z"/>
<path d="M1365 2150 c-3 -6 1 -7 9 -4 18 7 21 14 7 14 -6 0 -13 -4 -16 -10z"/>
<path d="M1316 2131 c-4 -5 3 -7 14 -4 23 6 26 13 6 13 -8 0 -17 -4 -20 -9z"/>
<path d="M2986 1748 c3 -5 10 -6 15 -3 13 9 11 12 -6 12 -8 0 -12 -4 -9 -9z"/>
<path d="M3046 1752 c-3 -6 1 -15 8 -21 8 -7 17 -8 20 -3 3 6 -1 15 -8 21 -8
7 -17 8 -20 3z"/>
<path d="M2684 1731 c-94 -43 -129 -169 -71 -257 34 -51 82 -78 141 -78 198 0
259 253 81 335 -51 24 -99 24 -151 0z m112 -137 c1 -12 4 -26 7 -31 4 -6 -2
-18 -12 -27 -15 -13 -20 -14 -24 -4 -5 11 -7 11 -15 -1 -8 -10 -13 -8 -26 10
-9 13 -16 31 -16 41 0 40 84 51 86 12z"/>
<path d="M3025 1701 c-3 -5 -1 -12 4 -15 5 -3 11 1 15 9 6 16 -9 21 -19 6z"/>
<path d="M3230 1638 c-31 -33 -27 -91 7 -118 34 -27 89 -22 116 11 23 29 22
84 -3 109 -28 28 -93 27 -120 -2z"/>
<path d="M7378 1603 c7 -3 16 -2 19 1 4 3 -2 6 -13 5 -11 0 -14 -3 -6 -6z"/>
</g>
</svg>
